<svg id="_3f77bce53937e53957d360644073b9ea" data-name="3f77bce53937e53957d360644073b9ea" xmlns="http://www.w3.org/2000/svg" width="79.99" height="73.979" viewBox="0 0 79.99 73.979">
  <path id="Path_70320" data-name="Path 70320" d="M80.991,4.72a1.1,1.1,0,0,0-.485-.97,1.236,1.236,0,0,0-1.091-.242c-25.937,7.272-51.631,6.666-76.961,0a1.457,1.457,0,0,0-.97.242A1.1,1.1,0,0,0,1,4.72V67.744a1.265,1.265,0,0,0,1.576,1.212,140.106,140.106,0,0,1,20.119-4.484V76.228a1.145,1.145,0,0,0,1.212,1.212H57.115a1.145,1.145,0,0,0,1.212-1.212V63.987c18.665,2.545,22.664,7.03,22.664,3.757ZM50.934,54.654H30.088a7.479,7.479,0,0,0-7.393,7.272c-1.7.242-3.394.485-5.09.848V21.688a106.948,106.948,0,0,0,46.783.242v40.6c-2.06-.364-4.121-.727-6.06-.97A7.5,7.5,0,0,0,50.934,54.654ZM3.424,43.5V31.869A89.683,89.683,0,0,0,15.18,35.5V47.261C12.756,46.534,8.393,45.443,3.424,43.5ZM31.542,21.446a104.479,104.479,0,0,1-13.938-2.3V9.2c4.727.727,9.454,1.333,13.938,1.576ZM15.18,32.96A106.236,106.236,0,0,1,3.424,29.2V17.446A89.682,89.682,0,0,0,15.18,21.082ZM78.567,29.2a95.813,95.813,0,0,1-11.756,4V21.446a78.54,78.54,0,0,0,11.756-3.878Zm-14.18-9.817a87.9,87.9,0,0,1-13.938,2.182V10.9A136.23,136.23,0,0,0,64.387,9.326Zm2.424,16.241a78.541,78.541,0,0,0,11.756-3.878V43.383a95.812,95.812,0,0,1-11.756,4ZM78.567,14.9a95.814,95.814,0,0,1-11.756,4V8.962c4-.727,7.878-1.576,11.756-2.666ZM48.025,11.023V21.809a107.657,107.657,0,0,1-13.938-.121V11.023A133.661,133.661,0,0,0,48.025,11.023ZM15.18,8.841v9.817A106.234,106.234,0,0,1,3.424,14.9V6.3C7.3,7.265,11.3,8.114,15.18,8.841ZM3.424,46.049A101.26,101.26,0,0,0,15.18,49.685V63.259c-3.878.848-7.878,1.7-11.756,2.909ZM55.9,75.016H48.995V70.168a1.212,1.212,0,0,0-2.424,0v4.848H34.451V70.168a1.212,1.212,0,0,0-2.424,0v4.848H25.119V62.169a5.018,5.018,0,0,1,4.969-5.09H50.934a5.018,5.018,0,0,1,4.969,5.09C55.9,65.2,55.9,71.622,55.9,75.016Zm10.908-12V49.927a78.539,78.539,0,0,0,11.756-3.878V66.168A105.536,105.536,0,0,0,66.811,63.017Z" transform="translate(-1 -3.461)" fill="#fff"/>
  <path id="Path_70321" data-name="Path 70321" d="M46.372,28.874A11.118,11.118,0,0,0,36.748,23a10.875,10.875,0,0,0-9.624,5.874,5.567,5.567,0,0,0-3.625,1.5,5.292,5.292,0,0,0-1.5,3.75,5.213,5.213,0,0,0,4.874,5.249,10.985,10.985,0,0,0,20-.125,4.338,4.338,0,0,0,2.875-1.5,5.292,5.292,0,0,0,1.5-3.75A5.59,5.59,0,0,0,46.372,28.874ZM36.748,25.5A8.525,8.525,0,0,1,43.5,28.874H30A8.525,8.525,0,0,1,36.748,25.5Zm0,17.873A8.673,8.673,0,0,1,29.624,39.5H43.873A8.673,8.673,0,0,1,36.748,43.373Zm11-7.249a2.544,2.544,0,0,1-1.875.75H27.124a2.669,2.669,0,0,1-2.625-2.75,2.838,2.838,0,0,1,.75-2,2.544,2.544,0,0,1,1.875-.75H45.872a2.669,2.669,0,0,1,2.625,2.75A2.386,2.386,0,0,1,47.747,36.124Z" transform="translate(3.015 0.367)" fill="#fff"/>
</svg>
