<svg xmlns="http://www.w3.org/2000/svg" width="94.891" height="75.537" viewBox="0 0 94.891 75.537">
  <path id="b9b26e00041051653036647b61866626" d="M88.742,18.472C79.786,8.767,65.571,3.024,50.443,3H45.028a1.576,1.576,0,0,0-1.636,1.094L42,10.918A43.693,43.693,0,0,0,29.879,14.93l-7.035-4.115a1.958,1.958,0,0,0-2.11.143l-7.656,6.16a1.113,1.113,0,0,0-.164,1.693l5.1,5.574a26.218,26.218,0,0,0-5.072,9.7L4.374,35.194A1.428,1.428,0,0,0,3,36.5v8.609a1.433,1.433,0,0,0,1.391,1.3l8.589,1.068a27,27,0,0,0,5.039,9.677l-5.1,5.6a1.113,1.113,0,0,0,.164,1.693L20.7,70.515a1.958,1.958,0,0,0,2.127.13L29.9,66.581a43.918,43.918,0,0,0,12.155,4.011l1.358,6.85a1.576,1.576,0,0,0,1.636,1.094h5.4c15.128-.024,29.342-5.767,38.3-15.472,12.2-13.278,12.2-31.315,0-44.593Zm-4.7,45.1-.883.768-.8.69c-.294.234-.589.482-.9.716l-.834.651-.949.677-.883.612-.982.638-.933.56c-.327.208-.671.4-1.031.6l-.949.521-1.063.547-1,.482-1.1.495c-.344.143-.671.3-1.014.43l-1.145.456-1.047.391-1.162.4-1.063.339L65.1,73.9l-1.08.3-1.243.3-.556.13c4.908-3.412,8.916-8.947,11.55-16.032a55.042,55.042,0,0,1,11.239,4l-.213.313c-.245.2-.507.43-.753.664ZM64.055,7.337l1.08.3,1.211.352,1.063.339,1.162.4,1.047.391c.393.143.769.3,1.145.456s.671.287,1.014.43l1.1.495,1,.482,1.063.547.949.521c.36.2.7.391,1.031.6l.933.56.982.638.883.612.949.677.834.651c.311.234.605.482.9.716l.8.69.851.768c.245.234.507.469.753.716l.245.26a55.8,55.8,0,0,1-11.239,4.011c-2.634-7.1-6.675-12.633-11.55-16.045l.556.13ZM52.079,61.789V55.876a97.54,97.54,0,0,1,18.585,2.006c-3.861,10.237-10.912,17.1-18.585,17.96ZM71.5,55.277a102.21,102.21,0,0,0-19.419-1.993V42.071h21.53A49.12,49.12,0,0,1,71.5,55.342ZM52.079,39.466V28.253A102.15,102.15,0,0,0,71.5,26.2a49.12,49.12,0,0,1,2.11,13.271Zm0-33.77c7.673.86,14.724,7.684,18.585,17.96a97.541,97.541,0,0,1-18.585,2.006V5.7ZM48.808,26.977V60.408c-7.3-.387-14.012-3.312-18.356-8-6.367-6.935-6.367-16.352,0-23.286,4.344-4.685,11.058-7.61,18.356-8ZM76.881,42.071H94.615A30.226,30.226,0,0,1,87.04,60.486a57.439,57.439,0,0,0-12.319-4.428,51.724,51.724,0,0,0,2.159-13.987Zm0-2.6a51.763,51.763,0,0,0-2.225-13.987,57.439,57.439,0,0,0,12.319-4.428,30.262,30.262,0,0,1,7.64,18.415Z" transform="translate(-3 -3)" fill="#fff"/>
</svg>
