<svg xmlns="http://www.w3.org/2000/svg" width="86.691" height="86.69" viewBox="0 0 86.691 86.69">
  <g id="_88ee5746fe9d696b4cb95704c5211bfe" data-name="88ee5746fe9d696b4cb95704c5211bfe" transform="translate(-1.074)">
    <path id="Path_70315" data-name="Path 70315" d="M-986.155,56.51a10.663,10.663,0,0,0-11.394,5.056,10.665,10.665,0,0,0,1.768,13,10.663,10.663,0,0,0,13.045,1.423A10.66,10.66,0,0,0-977.91,64.81a1.065,1.065,0,0,0-1.257-.831A1.065,1.065,0,0,0-980,65.236a8.517,8.517,0,0,1-3.863,8.942A8.512,8.512,0,0,1-994.3,73.041a8.516,8.516,0,0,1-1.415-10.4,8.518,8.518,0,0,1,9.112-4.046,1.065,1.065,0,0,0,1.033-.317,1.066,1.066,0,0,0,.224-1.057,1.065,1.065,0,0,0-.816-.709Z" transform="translate(1032.77 -23.59)" fill="#fff"/>
    <path id="Path_70316" data-name="Path 70316" d="M-994.166,65.7a1.066,1.066,0,0,0-.567.192l-1.144.782a10.772,10.772,0,0,0-9.862,2.8v0A10.9,10.9,0,0,0-1008.552,80a1.065,1.065,0,0,0,.752.753,1.065,1.065,0,0,0,1.029-.274l5.546-5.552,4.095,1.364,1.361,4.1-5.548,5.542a1.066,1.066,0,0,0-.278,1.032,1.066,1.066,0,0,0,.757.754A10.921,10.921,0,0,0-990.3,84.907a10.762,10.762,0,0,0,2.8-9.832l.92-1.165a1.067,1.067,0,0,0-.177-1.5,1.066,1.066,0,0,0-1.5.177l-1.118,1.421a1.065,1.065,0,0,0-.192.931,8.736,8.736,0,0,1-2.237,8.456,8.553,8.553,0,0,1-6.219,2.263l4.229-4.223a1.065,1.065,0,0,0,.256-1.091l-1.736-5.226a1.066,1.066,0,0,0-.675-.673l-5.222-1.741a1.066,1.066,0,0,0-1.091.258L-1006.5,77.2a8.525,8.525,0,0,1,2.263-6.217,8.743,8.743,0,0,1,8.46-2.243,1.066,1.066,0,0,0,.874-.149l1.37-.937a1.066,1.066,0,0,0,.424-1.218,1.065,1.065,0,0,0-1.061-.734Z" transform="translate(1010 -1.401)" fill="#fff"/>
    <path id="Path_70317" data-name="Path 70317" d="M-965.595,51.822a1.676,1.676,0,0,0-1.552,1.049l-1.877,4.671a26.263,26.263,0,0,0-6.012.047L-977,52.975a1.675,1.675,0,0,0-.917-.9,1.675,1.675,0,0,0-1.284.014l-10.087,4.3a1.675,1.675,0,0,0-.881,2.2l1.97,4.621a26.252,26.252,0,0,0-4.2,4.293l-4.675-1.877a1.675,1.675,0,0,0-2.178.928l-4.088,10.177a1.675,1.675,0,0,0,.928,2.178l4.671,1.877A26.3,26.3,0,0,0-997.7,86.8l-4.608,1.964a1.675,1.675,0,0,0-.9.914,1.674,1.674,0,0,0,.01,1.284l4.306,10.093a1.676,1.676,0,0,0,2.2.881l4.625-1.977a26.27,26.27,0,0,0,4.29,4.209l-1.874,4.668a1.676,1.676,0,0,0,.932,2.178l10.17,4.092a1.675,1.675,0,0,0,2.178-.928l1.877-4.675a25.951,25.951,0,0,0,6.012-.047l1.97,4.614a1.676,1.676,0,0,0,2.2.885l10.087-4.3a1.676,1.676,0,0,0,.881-2.2l-1.971-4.624a26.261,26.261,0,0,0,4.2-4.289l4.675,1.877a1.676,1.676,0,0,0,2.178-.928l4.092-10.177a1.676,1.676,0,0,0-.928-2.178l-4.675-1.88a26.29,26.29,0,0,0-.04-6.008l4.608-1.964a1.675,1.675,0,0,0,.9-.917,1.673,1.673,0,0,0-.015-1.284l-3.357-7.885a1.676,1.676,0,0,0-2.2-.883,1.676,1.676,0,0,0-.883,2.2l2.7,6.34-4.072,1.743a1.675,1.675,0,0,0-1,1.833,22.929,22.929,0,0,1,.053,7.7,1.676,1.676,0,0,0,1.026,1.82l4.145,1.669-2.842,7.071-4.128-1.662a1.676,1.676,0,0,0-2,.593,23.021,23.021,0,0,1-5.4,5.506,1.675,1.675,0,0,0-.553,2.017l1.743,4.082-7,2.992-1.743-4.078a1.675,1.675,0,0,0-1.83-.989,22.959,22.959,0,0,1-7.7.054,1.675,1.675,0,0,0-1.826,1.025l-1.662,4.138-7.071-2.842,1.666-4.128a1.675,1.675,0,0,0-.6-2,22.985,22.985,0,0,1-5.506-5.385,1.676,1.676,0,0,0-2.011-.556l-4.082,1.743-2.992-7,4.072-1.736a1.675,1.675,0,0,0,.995-1.833,23.1,23.1,0,0,1-.053-7.707,1.675,1.675,0,0,0-1.026-1.823l-4.145-1.662,2.848-7.071,4.122,1.659a1.676,1.676,0,0,0,2-.6,23.023,23.023,0,0,1,5.4-5.506,1.676,1.676,0,0,0,.553-2.014l-1.743-4.085,7-2.989,1.743,4.075a1.675,1.675,0,0,0,1.83,1,22.993,22.993,0,0,1,7.7-.057,1.675,1.675,0,0,0,1.826-1.029l1.662-4.135,6.628,2.664a1.676,1.676,0,0,0,2.182-.928,1.676,1.676,0,0,0-.928-2.181l-8.184-3.294a1.673,1.673,0,0,0-.627-.117Z" transform="translate(1016.18 -40.179)" fill="#fff"/>
    <path id="Path_70318" data-name="Path 70318" d="M-967.937,46.357a10.9,10.9,0,0,0-7.693,3.189,10.731,10.731,0,0,0-2.791,9.762l-19.863,20.057a1.066,1.066,0,0,0,.005,1.507,1.066,1.066,0,0,0,1.507-.005l20.138-20.336a1.065,1.065,0,0,0,.275-1.023,8.728,8.728,0,0,1,2.235-8.458,8.764,8.764,0,0,1,6.187-2.563c.1,0,.2.036.3.038l-4.5,4.5a1.066,1.066,0,0,0-.256,1.087l1.739,5.22a1.065,1.065,0,0,0,.673.675l5.222,1.738a1.065,1.065,0,0,0,1.091-.254l4.231-4.231a8.536,8.536,0,0,1-2.263,6.217,8.742,8.742,0,0,1-8.46,2.241,1.066,1.066,0,0,0-1.027.283l-20.325,20.585a1.066,1.066,0,0,0-.316,1.053,1.066,1.066,0,0,0,.783.772A1.065,1.065,0,0,0-990,88.077l20.042-20.3a10.749,10.749,0,0,0,9.762-2.8,10.913,10.913,0,0,0,2.812-10.538,1.065,1.065,0,0,0-.753-.752,1.065,1.065,0,0,0-1.028.275l-5.546,5.546-4.095-1.364-1.361-4.091,5.548-5.548a1.066,1.066,0,0,0,.278-1.032,1.066,1.066,0,0,0-.757-.754,10.906,10.906,0,0,0-2.842-.371Z" transform="translate(1044.772 -46.357)" fill="#fff"/>
    <path id="Path_70319" data-name="Path 70319" d="M-996.6,58.508a1.065,1.065,0,0,0-.944.541,10.665,10.665,0,0,0,1.768,13,10.663,10.663,0,0,0,13.045,1.423,1.067,1.067,0,0,0,.344-1.469,1.067,1.067,0,0,0-1.469-.344A8.513,8.513,0,0,1-994.3,70.524a8.516,8.516,0,0,1-1.415-10.4,1.065,1.065,0,0,0,.02-1.066,1.066,1.066,0,0,0-.914-.549Z" transform="translate(1031.652 -19.91)" fill="#fff"/>
  </g>
</svg>
